<svg width="16" height="17" viewBox="0 0 16 17" fill="none" xmlns="http://www.w3.org/2000/svg">
<g clip-path="url(#clip0_219_1498)">
<path d="M1.14232 5.83516H14.8573V15.7402H15.6173V3.55016H14.8573V5.07016H1.14232V3.55016H0.382324V15.7402H1.14232V5.83516ZM14.0973 2.78516H14.8573V3.55016H14.0973V2.78516ZM1.14232 15.7402H14.8573V16.5002H1.14232V15.7402Z" fill="white"/>
<path d="M12.5727 9.645H11.0477V10.405H10.2877V9.645H8.76271V10.405H8.00271V11.93H8.76271V12.69H9.52271V13.45H10.2877V14.215H11.0477V13.45H11.8077V12.69H12.5727V11.93H13.3327V10.405H12.5727V9.645ZM11.8077 7.355H12.5727V8.12H11.8077V7.355ZM8.76271 7.355H9.52271V8.12H8.76271V7.355ZM5.71271 13.45H6.47771V14.215H5.71271V13.45ZM5.71271 10.405H6.47771V11.165H5.71271V10.405ZM5.71271 7.355H6.47771V8.12H5.71271V7.355ZM2.66771 13.45H3.42771V14.215H2.66771V13.45ZM2.66771 10.405H3.42771V11.165H2.66771V10.405ZM2.66771 7.355H3.42771V8.12H2.66771V7.355ZM4.19271 2.785V3.55H4.95271V2.785H11.0477V3.55H11.8077V2.785H14.0977V2.025H11.8077V0.5H11.0477V2.025H4.95271V0.5H4.19271V2.025H1.90771V2.785H4.19271Z" fill="white"/>
<path d="M1.14258 2.78516H1.90758V3.55016H1.14258V2.78516Z" fill="white"/>
</g>
<defs>
<clipPath id="clip0_219_1498">
<rect width="16" height="16" fill="white" transform="translate(0 0.5)"/>
</clipPath>
</defs>
</svg>
