<svg width="32" height="32" viewBox="0 0 32 32" fill="none" xmlns="http://www.w3.org/2000/svg">
<path d="M30 12.9998C30 11.3548 28.645 9.9998 27 9.9998H15.187L15.875 9.3438L16.094 9.0938C16.6473 8.53732 16.9578 7.7845 16.9578 6.9998C16.9578 6.21509 16.6473 5.46227 16.094 4.9058C15.5375 4.35254 14.7847 4.04199 14 4.04199C13.2153 4.04199 12.4625 4.35254 11.906 4.9058H11.875L3.781 13.0938L3.75 13.1558L3.687 13.1868C2.59572 14.6256 2.00344 16.381 2 18.1868V19.9068C1.99776 20.9826 2.20802 22.0483 2.61873 23.0427C3.02943 24.0371 3.63249 24.9405 4.39327 25.7012C5.15406 26.4619 6.05759 27.0649 7.05201 27.4755C8.04643 27.886 9.11215 28.0962 10.188 28.0938H18C19.645 28.0938 21 26.7378 21 25.0938C21 24.6678 20.883 24.2738 20.719 23.9058C22.019 23.5778 23 22.3948 23 20.9998C23 20.2338 22.7 19.5308 22.219 18.9998C22.7188 18.4533 22.9972 17.7403 23 16.9998C22.9947 16.6582 22.9312 16.32 22.812 15.9998H27C28.645 15.9998 30 14.6448 30 12.9998ZM28 12.9998C28 13.5548 27.555 13.9998 27 13.9998H16V15.9998H20C20.555 15.9998 21 16.4448 21 16.9998C21 17.5548 20.555 17.9998 20 17.9998H16L16 19.9998H20C20.555 19.9998 21 20.4448 21 20.9998C21 21.5548 20.555 21.9998 20 21.9998H16V24.0938H18C18.555 24.0938 19 24.5388 19 25.0938C19 25.6488 18.555 26.0938 18 26.0938H10.187C6.723 26.0938 4 23.3708 4 19.9058V18.1878C4 16.7228 4.523 15.4568 5.313 14.4058L13.313 6.3118C13.758 5.8668 14.243 5.8668 14.688 6.3118C15.133 6.7578 15.133 7.2418 14.688 7.6868L10.375 11.9998H27C27.555 11.9998 28 12.4448 28 12.9998Z" fill="#4E2675"/>
</svg>
