<svg width="17" height="16" viewBox="0 0 17 16" fill="none" xmlns="http://www.w3.org/2000/svg">
<g clip-path="url(#clip0_201_332)">
<path d="M6.53369 1C6.53369 1.55313 6.98057 2 7.53369 2C11.3993 2 14.5337 5.13438 14.5337 9C14.5337 9.55313 14.9806 10 15.5337 10C16.0868 10 16.5337 9.55313 16.5337 9C16.5337 4.02812 12.5056 0 7.53369 0C6.98057 0 6.53369 0.446875 6.53369 1ZM6.53369 4C6.53369 4.55312 6.98057 5 7.53369 5C9.74307 5 11.5337 6.79063 11.5337 9C11.5337 9.55313 11.9806 10 12.5337 10C13.0868 10 13.5337 9.55313 13.5337 9C13.5337 5.6875 10.8462 3 7.53369 3C6.98057 3 6.53369 3.44688 6.53369 4ZM3.53369 4.5C3.53369 3.67188 2.86182 3 2.03369 3C1.20557 3 0.533691 3.67188 0.533691 4.5V11.5C0.533691 13.9844 2.54932 16 5.03369 16C7.51807 16 9.53369 13.9844 9.53369 11.5C9.53369 9.01562 7.51807 7 5.03369 7H4.53369V10H5.03369C5.86182 10 6.53369 10.6719 6.53369 11.5C6.53369 12.3281 5.86182 13 5.03369 13C4.20557 13 3.53369 12.3281 3.53369 11.5V4.5Z" fill="#643E7C"/>
</g>
<defs>
<clipPath id="clip0_201_332">
<rect width="16" height="16" fill="white" transform="translate(0.533691)"/>
</clipPath>
</defs>
</svg>
