<svg width="21" height="20" viewBox="0 0 21 20" fill="none" xmlns="http://www.w3.org/2000/svg">
<path d="M11.4668 7H9.4668V5H11.4668M11.4668 15H9.4668V9H11.4668M10.4668 0C9.15358 0 7.85322 0.258658 6.63996 0.761205C5.42671 1.26375 4.32431 2.00035 3.39573 2.92893C1.52037 4.8043 0.466797 7.34784 0.466797 10C0.466797 12.6522 1.52037 15.1957 3.39573 17.0711C4.32431 17.9997 5.42671 18.7362 6.63996 19.2388C7.85322 19.7413 9.15358 20 10.4668 20C13.119 20 15.6625 18.9464 17.5379 17.0711C19.4132 15.1957 20.4668 12.6522 20.4668 10C20.4668 8.68678 20.2081 7.38642 19.7056 6.17317C19.203 4.95991 18.4664 3.85752 17.5379 2.92893C16.6093 2.00035 15.5069 1.26375 14.2936 0.761205C13.0804 0.258658 11.78 0 10.4668 0Z" fill="#643E7C"/>
</svg>
