<svg width="25" height="24" viewBox="0 0 25 24" fill="none" xmlns="http://www.w3.org/2000/svg">
<path d="M12.4668 11.5C11.8038 11.5 11.1679 11.2366 10.699 10.7678C10.2302 10.2989 9.9668 9.66304 9.9668 9C9.9668 8.33696 10.2302 7.70107 10.699 7.23223C11.1679 6.76339 11.8038 6.5 12.4668 6.5C13.1298 6.5 13.7657 6.76339 14.2346 7.23223C14.7034 7.70107 14.9668 8.33696 14.9668 9C14.9668 9.3283 14.9021 9.65339 14.7765 9.95671C14.6509 10.26 14.4667 10.5356 14.2346 10.7678C14.0024 10.9999 13.7268 11.1841 13.4235 11.3097C13.1202 11.4353 12.7951 11.5 12.4668 11.5ZM12.4668 2C10.6103 2 8.8298 2.7375 7.51705 4.05025C6.20429 5.36301 5.4668 7.14348 5.4668 9C5.4668 14.25 12.4668 22 12.4668 22C12.4668 22 19.4668 14.25 19.4668 9C19.4668 7.14348 18.7293 5.36301 17.4165 4.05025C16.1038 2.7375 14.3233 2 12.4668 2Z" fill="#643E7C"/>
</svg>
