<svg width="19" height="22" viewBox="0 0 19 22" fill="none" xmlns="http://www.w3.org/2000/svg">
<path d="M5.4668 6.84009C5.4668 4.74805 7.3628 2.68 8.6928 1.48698C9.04306 1.17339 9.49667 1 9.9668 1C10.4369 1 10.8905 1.17339 11.2408 1.48698C12.5708 2.681 14.4668 4.74705 14.4668 6.84109C14.4668 8.89113 12.7628 11.0012 9.9668 11.0012C7.1708 11.0012 5.4668 8.89113 5.4668 6.84009ZM1.4668 13.0012H3.8618C4.1558 13.0012 4.4458 13.0672 4.7088 13.1952L6.7508 14.1832C7.0138 14.3102 7.3038 14.3762 7.5988 14.3762H8.6408C9.6488 14.3762 10.4668 15.1673 10.4668 16.1433C10.4668 16.1833 10.4398 16.2173 10.4008 16.2283L7.8598 16.9313C7.40385 17.0573 6.91766 17.0132 6.4918 16.8073L4.3088 15.7513" fill="#643E7C"/>
<path d="M1.4668 13.0012H3.8618C4.1558 13.0012 4.4458 13.0672 4.7088 13.1952L6.7508 14.1832C7.0138 14.3102 7.3038 14.3762 7.5988 14.3762H8.6408C9.6488 14.3762 10.4668 15.1673 10.4668 16.1433C10.4668 16.1833 10.4398 16.2173 10.4008 16.2283L7.8598 16.9313C7.40385 17.0573 6.91766 17.0132 6.4918 16.8073L4.3088 15.7513M5.4668 6.84009C5.4668 4.74805 7.3628 2.68 8.6928 1.48698C9.04306 1.17339 9.49667 1 9.9668 1C10.4369 1 10.8905 1.17339 11.2408 1.48698C12.5708 2.681 14.4668 4.74705 14.4668 6.84109C14.4668 8.89113 12.7628 11.0012 9.9668 11.0012C7.1708 11.0012 5.4668 8.89113 5.4668 6.84009Z" stroke="black" stroke-width="1.5" stroke-linecap="round" stroke-linejoin="round"/>
<path d="M10.4668 15.5003L15.0598 14.0893C15.4597 13.9666 15.888 13.9733 16.2838 14.1086C16.6796 14.2438 17.0226 14.5006 17.2638 14.8423C17.6328 15.3523 17.4828 16.0843 16.9448 16.3943L9.4298 20.7314C9.19481 20.8674 8.93461 20.9541 8.66503 20.9862C8.39546 21.0184 8.12217 20.9953 7.8618 20.9184L1.4668 19.0204" fill="#643E7C"/>
<path d="M10.4668 15.5003L15.0598 14.0893C15.4597 13.9666 15.888 13.9733 16.2838 14.1086C16.6796 14.2438 17.0226 14.5006 17.2638 14.8423C17.6328 15.3523 17.4828 16.0843 16.9448 16.3943L9.4298 20.7314C9.19481 20.8674 8.93461 20.9541 8.66503 20.9862C8.39546 21.0184 8.12217 20.9953 7.8618 20.9184L1.4668 19.0204" stroke="black" stroke-width="1.5" stroke-linecap="round" stroke-linejoin="round"/>
</svg>
