<svg width="14" height="14" viewBox="0 0 14 14" fill="none" xmlns="http://www.w3.org/2000/svg">
<path fill-rule="evenodd" clip-rule="evenodd" d="M12.3335 5.78635C12.1268 3.66635 10.8735 0.333008 7.00016 0.333008C3.12681 0.333008 1.87347 3.66635 1.66681 5.78635C0.941813 6.06151 0.463594 6.75757 0.466813 7.53301V8.46635C0.466813 9.49729 1.30256 10.333 2.33347 10.333C3.36441 10.333 4.20016 9.49726 4.20016 8.46635V7.53301C4.19678 6.77429 3.73616 6.09254 3.03347 5.80635C3.16681 4.57966 3.82016 1.66635 7.00016 1.66635C10.1802 1.66635 10.8268 4.57966 10.9602 5.80635C10.2589 6.09316 9.80059 6.77538 9.80016 7.53301V8.46635C9.80159 8.81759 9.90173 9.16135 10.0892 9.45841C10.2766 9.75546 10.5437 9.99385 10.8602 10.1464C10.5802 10.673 9.86681 11.3864 8.11347 11.5997C7.763 11.0675 7.08491 10.8577 6.49509 11.0989C5.90531 11.3402 5.56866 11.9651 5.69166 12.5904C5.81466 13.2156 6.36291 13.6664 7.00016 13.6664C7.24707 13.665 7.48876 13.5951 7.69828 13.4644C7.9078 13.3337 8.07693 13.1475 8.18681 12.9264C11.0468 12.5997 11.9602 11.1264 12.2468 10.2597C13.0223 10.0084 13.5439 9.28151 13.5335 8.46635V7.53301C13.5367 6.75757 13.0585 6.06151 12.3335 5.78635ZM2.86681 8.46635C2.86681 8.76088 2.62803 8.99966 2.33347 8.99966C2.03891 8.99966 1.80016 8.76091 1.80016 8.46635V7.53301C1.79962 7.46263 1.81302 7.39284 1.83958 7.32766C1.86614 7.26248 1.90534 7.2032 1.95491 7.15324C2.00449 7.10328 2.06347 7.06363 2.12844 7.03657C2.19341 7.00951 2.2631 6.99558 2.33348 6.99558C2.40387 6.99558 2.47356 7.00951 2.53853 7.03657C2.6035 7.06363 2.66248 7.10328 2.71206 7.15324C2.76163 7.2032 2.80083 7.26248 2.82739 7.32766C2.85395 7.39284 2.86735 7.46263 2.86681 7.53301V8.46635ZM11.1335 7.53301C11.1335 7.23845 11.3723 6.99966 11.6668 6.99966C11.9614 6.99966 12.2002 7.23845 12.2002 7.53301V8.46635C12.2002 8.76088 11.9614 8.99966 11.6668 8.99966C11.3723 8.99966 11.1335 8.76091 11.1335 8.46635V7.53301Z" fill="#643E7C"/>
</svg>
