<svg width="22" height="24" viewBox="0 0 22 24" fill="none" xmlns="http://www.w3.org/2000/svg">
<path d="M12.1631 3.74191C12.4382 3.45445 12.8112 3.29297 13.2001 3.29297C13.589 3.29297 13.962 3.45445 14.237 3.74191L20.837 10.6419C21.112 10.9295 21.2664 11.3194 21.2664 11.726C21.2664 12.1326 21.112 12.5225 20.837 12.81L14.237 19.71C13.9604 19.9893 13.5899 20.1439 13.2053 20.1404C12.8208 20.1369 12.4529 19.9757 12.181 19.6914C11.9091 19.4071 11.7548 19.0225 11.7515 18.6205C11.7481 18.2184 11.896 17.8311 12.1631 17.5419L16.1334 13.2593H2.20007C1.81108 13.2593 1.43803 13.0978 1.16298 12.8102C0.887922 12.5226 0.733398 12.1326 0.733398 11.726C0.733398 11.3193 0.887922 10.9293 1.16298 10.6417C1.43803 10.3542 1.81108 10.1926 2.20007 10.1926H16.1334L12.1631 5.91004C11.8882 5.6225 11.7337 5.23256 11.7337 4.82597C11.7337 4.41939 11.8882 4.02945 12.1631 3.74191Z" fill="#6C63FF"/>
</svg>
