<svg width="48" height="48" viewBox="0 0 48 48" fill="none" xmlns="http://www.w3.org/2000/svg">
<g clip-path="url(#clip0_149_913)">
<path d="M0.606709 27.095H30.675V29.9135H0.606709V27.095ZM24.2062 21.17C24.2062 20.7017 24.2985 20.238 24.4777 19.8053C24.6569 19.3726 24.9196 18.9795 25.2507 18.6483C25.5819 18.3171 25.975 18.0545 26.4077 17.8752C26.8404 17.696 27.3041 17.6038 27.7725 17.6038C28.7184 17.6042 29.6255 17.98 30.2945 18.6486C30.9636 19.3173 31.34 20.2241 31.341 21.17C31.3392 22.1158 30.9626 23.0224 30.2938 23.6911C29.6249 24.3598 28.7183 24.7362 27.7725 24.7378C26.8267 24.7368 25.9199 24.3605 25.2513 23.6916C24.5827 23.0227 24.2068 22.1158 24.2062 21.17ZM19.6462 17.4793H7.69946L0.595459 18.5668V24.7333L4.18046 24.7348C3.88475 24.2622 3.72659 23.7165 3.72371 23.159C3.7243 22.3589 4.04236 21.5917 4.60805 21.0259C5.17375 20.4601 5.94085 20.1418 6.74096 20.141H13.2832L18.5865 19.0325L18.8805 20.441L13.4317 21.5788H6.74096C6.32205 21.5788 5.9203 21.7452 5.62408 22.0414C5.32787 22.3376 5.16146 22.7394 5.16146 23.1583C5.16146 24.023 5.85671 24.7228 6.71996 24.734L19.674 24.7355C20.6327 24.7314 21.5508 24.3477 22.2274 23.6684C22.904 22.9891 23.2841 22.0695 23.2845 21.1108C23.2848 20.6332 23.1908 20.1602 23.008 19.719C22.8252 19.2778 22.5571 18.877 22.2191 18.5396C21.8812 18.2022 21.4799 17.9348 21.0384 17.7527C20.5969 17.5706 20.1238 17.4782 19.6462 17.4793Z" fill="#4E2675"/>
<path d="M25.8284 37.479C33.7979 37.479 40.2584 31.0177 40.2584 23.0482C40.2584 15.0772 33.7987 8.6167 25.8284 8.6167C20.6182 8.6167 16.0657 11.3894 13.5284 15.5294H19.5719C21.3335 14.0476 23.5625 13.2367 25.8644 13.2404C31.2802 13.2404 35.6707 17.6317 35.6707 23.0482C35.6707 28.4655 31.2794 32.8567 25.8644 32.8567C24.3277 32.8567 22.8802 32.493 21.5857 31.8629H14.4217C17.0602 35.2732 21.1822 37.479 25.8284 37.479Z" fill="#4E2675"/>
<path d="M25.8285 0.654785C15.954 0.654785 7.58253 7.06804 4.63428 15.954L7.38603 15.5258L11.8515 15.5273C14.5328 10.5555 19.785 7.17603 25.8278 7.17603C34.5938 7.17603 41.7 14.283 41.7 23.049C41.7 31.815 34.5945 38.9213 25.8278 38.9213C20.3235 38.9213 15.4778 36.117 12.6308 31.8608H5.33253C8.76378 39.7793 16.647 45.3218 25.8278 45.3218C38.1615 45.3218 48.1613 35.3235 48.1613 22.9883C48.1613 10.6553 38.1623 0.654785 25.8285 0.654785ZM30.8963 5.73304C30.8506 5.91512 30.7345 6.07161 30.5734 6.16809C30.4124 6.26457 30.2196 6.29315 30.0375 6.24753C27.2966 5.56719 24.4309 5.56719 21.69 6.24753C21.5998 6.27052 21.5059 6.27541 21.4138 6.26191C21.3217 6.24841 21.2331 6.21679 21.1533 6.16889C21.0734 6.12098 21.0039 6.05773 20.9486 5.9828C20.8933 5.90786 20.8535 5.82272 20.8313 5.73229C20.8084 5.642 20.8037 5.54809 20.8173 5.45597C20.831 5.36385 20.8628 5.27534 20.9108 5.19557C20.9588 5.11579 21.0222 5.04632 21.0973 4.99118C21.1723 4.93603 21.2575 4.89631 21.348 4.87429C24.3138 4.13828 27.4145 4.13828 30.3803 4.87429C30.5624 4.91998 30.7189 5.03607 30.8155 5.19708C30.9121 5.35808 30.9417 5.55084 30.8963 5.73304Z" fill="#4E2675"/>
</g>
<defs>
<clipPath id="clip0_149_913">
<rect width="48" height="48" fill="white"/>
</clipPath>
</defs>
</svg>
