<svg width="48" height="48" viewBox="0 0 48 48" fill="none" xmlns="http://www.w3.org/2000/svg">
<path d="M2.38798 3.22814C2.36844 3.19287 2.35608 3.15409 2.35162 3.11402C2.34716 3.07395 2.35067 3.03339 2.36197 2.99469C2.37327 2.95599 2.39212 2.91991 2.41744 2.88853C2.44275 2.85716 2.47404 2.83111 2.50948 2.81189L4.73698 1.59839C4.77227 1.57893 4.81109 1.56667 4.85116 1.56232C4.89124 1.55798 4.93177 1.56163 4.97043 1.57307C5.00908 1.58451 5.04507 1.60352 5.07632 1.62898C5.10757 1.65444 5.13346 1.68585 5.15248 1.72139L6.04573 3.35114C9.42297 2.33864 13.1647 3.77864 14.922 6.99689L10.6057 9.35339C10.9486 9.98205 11.0276 10.7212 10.8255 11.4081C10.6234 12.095 10.1566 12.6736 9.52798 13.0164C8.89931 13.3592 8.16021 13.4383 7.47327 13.2361C6.78632 13.034 6.2078 12.5673 5.86498 11.9386L1.54723 14.2921C-0.211524 11.0754 0.596226 7.14989 3.27973 4.85864L2.38798 3.22814ZM32.7982 32.5846H47.325V47.6011H32.7982V32.5846ZM31.1332 40.0899H19.401C18.4177 40.0897 17.4748 39.6992 16.7792 39.0042C16.0837 38.3093 15.6925 37.3666 15.6915 36.3834C15.6921 35.4001 16.0832 34.4573 16.7788 33.7624C17.4745 33.0674 18.4177 32.6772 19.401 32.6776H31.1332V40.0899ZM5.83798 43.0966C5.83798 42.2679 6.50923 41.5951 7.33873 41.5951H31.1325V47.5996H5.83798V43.0959V43.0966ZM14.8605 35.6154C14.8601 36.2034 14.7439 36.7857 14.5184 37.3288C14.293 37.8719 13.9628 38.3653 13.5467 38.7808C13.1305 39.1964 12.6366 39.5258 12.0931 39.7504C11.5497 39.975 10.9673 40.0904 10.3792 40.0899C9.79111 40.0905 9.20863 39.9752 8.66507 39.7506C8.12151 39.5261 7.62752 39.1966 7.21131 38.7811C6.79509 38.3656 6.46482 37.8722 6.23935 37.329C6.01387 36.7858 5.89762 36.2035 5.89723 35.6154C5.89723 33.1456 7.90347 31.1431 10.3792 31.1431C12.8535 31.1431 14.8605 33.1456 14.8605 35.6154ZM39.3555 23.0851L36.8347 15.9084C36.3457 14.5554 35.4067 13.4994 32.7562 13.4994H21.1192C18.4695 13.4994 17.529 14.5554 17.0422 15.9084L14.5222 23.0851C14.334 23.5486 14.2365 24.5904 15.2617 25.2879L21.1875 29.1924C21.603 29.4664 22.1102 29.5644 22.5979 29.465C23.0856 29.3656 23.514 29.0769 23.7892 28.6621C23.9249 28.4563 24.0188 28.2257 24.0654 27.9835C24.1119 27.7414 24.1104 27.4924 24.0607 27.2509C24.011 27.0093 23.9143 26.7799 23.7759 26.5758C23.6376 26.3717 23.4604 26.1968 23.2545 26.0611L18.5512 22.9614L19.875 19.3096H21.7072L20.634 22.2721L24.2047 24.6256C24.5999 24.8846 24.9398 25.2194 25.2046 25.6106C25.4694 26.0019 25.6539 26.4418 25.7475 26.9049C25.8445 27.3678 25.8486 27.8454 25.7596 28.31C25.6705 28.7745 25.4899 29.2167 25.2285 29.6109C25.0191 29.9235 24.762 30.2014 24.4665 30.4344H29.4105C29.1156 30.2006 28.8583 29.9228 28.6477 29.6109C28.3864 29.2166 28.2058 28.7745 28.1165 28.31C28.0271 27.8455 28.0308 27.368 28.1272 26.9049C28.2212 26.4419 28.4061 26.0021 28.671 25.6109C28.9359 25.2197 29.2757 24.8848 29.6707 24.6256L33.2437 22.2721L32.166 19.3096H33.9997L35.3265 22.9614L30.621 26.0611C29.7562 26.6311 29.5147 27.7989 30.087 28.6621C30.6592 29.5254 31.8247 29.7639 32.6895 29.1924L38.6145 25.2879C39.6405 24.5896 39.543 23.5486 39.3555 23.0851ZM28.0957 6.47564C27.9542 6.78305 27.7275 7.04344 27.4425 7.22594C27.1575 7.40845 26.8262 7.50543 26.4877 7.50539C26.1489 7.50523 25.8171 7.40822 25.5315 7.22577C25.246 7.04333 25.0185 6.78306 24.876 6.47564H21.63C21.5775 6.76064 21.5467 7.05239 21.5467 7.35314C21.5481 8.66717 22.0711 9.9269 23.0009 10.8555C23.9306 11.7841 25.1909 12.3056 26.505 12.3054C27.1558 12.3059 27.8003 12.1782 28.4017 11.9296C29.0032 11.6809 29.5497 11.3163 30.0102 10.8564C30.4707 10.3965 30.8361 9.85047 31.0856 9.24938C31.335 8.64828 31.4636 8.00394 31.464 7.35314C31.464 7.05164 31.4317 6.76064 31.3815 6.47564H28.0957ZM24.7665 5.30639C24.8635 4.92334 25.0854 4.58355 25.3971 4.3407C25.7088 4.09785 26.0926 3.96579 26.4877 3.96539C27.3172 3.96539 28.017 4.53839 28.206 5.30639H31.0185C30.6248 4.43973 29.9898 3.70474 29.1896 3.18925C28.3894 2.67375 27.4576 2.39955 26.5057 2.39939C25.5538 2.39955 24.6221 2.67375 23.8218 3.18925C23.0216 3.70474 22.3867 4.43973 21.993 5.30639H24.7665Z" fill="#4E2675"/>
</svg>
