<svg width="48" height="48" viewBox="0 0 48 48" fill="none" xmlns="http://www.w3.org/2000/svg">
<path fill-rule="evenodd" clip-rule="evenodd" d="M12 19.4998C13.1935 19.4998 14.3381 19.0257 15.182 18.1818C16.0259 17.3379 16.5 16.1933 16.5 14.9998C16.5 13.8063 16.0259 12.6617 15.182 11.8178C14.3381 10.9739 13.1935 10.4998 12 10.4998C10.8065 10.4998 9.66193 10.9739 8.81802 11.8178C7.97411 12.6617 7.5 13.8063 7.5 14.9998C7.5 16.1933 7.97411 17.3379 8.81802 18.1818C9.66193 19.0257 10.8065 19.4998 12 19.4998ZM21 14.9998C21.0003 17.3744 20.0622 19.6528 18.39 21.3388C20.1082 22.4197 21.5241 23.9189 22.5052 25.6959C23.4863 27.473 24.0007 29.4699 24 31.4998V35.9998C24 37.5911 23.3679 39.1172 22.2426 40.2424C21.1174 41.3677 19.5913 41.9998 18 41.9998H6C4.4087 41.9998 2.88258 41.3677 1.75736 40.2424C0.632141 39.1172 0 37.5911 0 35.9998V31.4998C0 27.2188 2.241 23.4628 5.61 21.3388C4.56887 20.2891 3.80238 18.9991 3.37826 17.5828C2.95415 16.1665 2.88547 14.6675 3.17831 13.2183C3.47116 11.7692 4.11649 10.4145 5.05728 9.27397C5.99806 8.13348 7.20533 7.24231 8.57235 6.67925C9.93938 6.11618 11.4241 5.89856 12.8952 6.04561C14.3663 6.19266 15.7785 6.69987 17.0071 7.52239C18.2356 8.34491 19.2426 9.45741 19.939 10.7616C20.6354 12.0657 20.9998 13.5213 21 14.9998ZM47.34 15.8398C47.7374 15.4133 47.9538 14.8491 47.9435 14.2662C47.9332 13.6833 47.6971 13.1272 47.2849 12.7149C46.8726 12.3027 46.3165 12.0666 45.7336 12.0563C45.1507 12.046 44.5865 12.2624 44.16 12.6598L36 20.8198L32.34 17.1598C32.134 16.9387 31.8856 16.7614 31.6096 16.6385C31.3336 16.5155 31.0357 16.4493 30.7336 16.444C30.4315 16.4387 30.1314 16.4943 29.8512 16.6074C29.571 16.7206 29.3165 16.889 29.1029 17.1027C28.8892 17.3163 28.7208 17.5708 28.6076 17.851C28.4945 18.1312 28.4389 18.4313 28.4442 18.7334C28.4496 19.0355 28.5157 19.3334 28.6387 19.6094C28.7616 19.8854 28.9389 20.1338 29.16 20.3398L34.41 25.5898C34.8319 26.0111 35.4037 26.2478 36 26.2478C36.5963 26.2478 37.1681 26.0111 37.59 25.5898L47.34 15.8398Z" fill="#4E2675"/>
</svg>
