<svg width="48" height="55" viewBox="0 0 48 55" fill="none" xmlns="http://www.w3.org/2000/svg">
<g clip-path="url(#clip0_149_926)">
<path d="M30.8571 14.6094V0H9.42857C8.00357 0 6.85714 1.14941 6.85714 2.57812V27.5H0.857143C0.385714 27.5 0 27.8867 0 28.3594V30.0781C0 30.5508 0.385714 30.9375 0.857143 30.9375H15.9536C16.275 30.9375 16.575 31.1201 16.725 31.4102L18.8571 35.6855L24.9429 23.4717C25.2536 22.8379 26.1643 22.8379 26.475 23.4717L30.1929 30.9375H37.7143C38.6571 30.9375 39.4286 31.7109 39.4286 32.6562C39.4286 33.6016 38.6571 34.375 37.7143 34.375H28.0821L25.7143 29.627L19.6286 41.8408C19.3179 42.4746 18.4071 42.4746 18.0964 41.8408L14.3679 34.375H6.85714V52.4219C6.85714 53.8506 8.00357 55 9.42857 55H45.4286C46.8536 55 48 53.8506 48 52.4219V17.1875H33.4286C32.0143 17.1875 30.8571 16.0273 30.8571 14.6094ZM47.25 11.2793L36.7607 0.751953C36.2786 0.268555 35.625 0 34.9393 0H34.2857V13.75H48V13.0947C48 12.418 47.7321 11.7627 47.25 11.2793Z" fill="#4E2675"/>
</g>
<defs>
<clipPath id="clip0_149_926">
<rect width="48" height="55" fill="white"/>
</clipPath>
</defs>
</svg>
