<svg width="80" height="80" viewBox="0 0 80 80" fill="none" xmlns="http://www.w3.org/2000/svg">
<path fill-rule="evenodd" clip-rule="evenodd" d="M12.9167 10C11.1486 10 9.45286 10.7024 8.20262 11.9526C6.95238 13.2029 6.25 14.8986 6.25 16.6667V63.3333C6.25 65.1014 6.95238 66.7971 8.20262 68.0474C9.45286 69.2976 11.1486 70 12.9167 70H66.25C68.0181 70 69.7138 69.2976 70.964 68.0474C72.2143 66.7971 72.9167 65.1014 72.9167 63.3333V16.6667C72.9167 14.8986 72.2143 13.2029 70.964 11.9526C69.7138 10.7024 68.0181 10 66.25 10H12.9167ZM28.3333 28.7667C28.4073 28.1294 28.6292 27.5182 28.9813 26.9819C29.3334 26.4456 29.806 25.9991 30.3613 25.6778C30.9167 25.3566 31.5394 25.1696 32.1799 25.1318C32.8203 25.094 33.4607 25.2064 34.05 25.46C35.73 26.18 39.2767 27.8 43.77 30.3933C46.9278 32.1981 49.9775 34.186 52.9033 36.3467C53.4178 36.7294 53.8356 37.2272 54.1234 37.8002C54.4113 38.3731 54.5612 39.0055 54.5612 39.6467C54.5612 40.2879 54.4113 40.9202 54.1234 41.4932C53.8356 42.0661 53.4178 42.5639 52.9033 42.9467C49.9773 45.1051 46.9277 47.0907 43.77 48.8933C40.629 50.728 37.3835 52.3775 34.05 53.8333C33.4608 54.0877 32.8202 54.2006 32.1795 54.1632C31.5388 54.1257 30.9158 53.9388 30.3602 53.6174C29.8047 53.2961 29.332 52.8492 28.9801 52.3125C28.6281 51.7759 28.4066 51.1643 28.3333 50.5267C27.9334 46.9139 27.7375 43.2815 27.7467 39.6467C27.7467 34.4767 28.12 30.5833 28.3333 28.7667Z" fill="#ECE6F3"/>
</svg>
