<svg width="80" height="81" viewBox="0 0 80 81" fill="none" xmlns="http://www.w3.org/2000/svg">
<path fill-rule="evenodd" clip-rule="evenodd" d="M12.9167 10.6133C11.1486 10.6133 9.45286 11.3157 8.20262 12.5659C6.95238 13.8161 6.25 15.5118 6.25 17.2799V63.9466C6.25 65.7147 6.95238 67.4104 8.20262 68.6607C9.45286 69.9109 11.1486 70.6133 12.9167 70.6133H66.25C68.0181 70.6133 69.7138 69.9109 70.964 68.6607C72.2143 67.4104 72.9167 65.7147 72.9167 63.9466V17.2799C72.9167 15.5118 72.2143 13.8161 70.964 12.5659C69.7138 11.3157 68.0181 10.6133 66.25 10.6133H12.9167ZM28.3333 29.3799C28.4073 28.7427 28.6292 28.1315 28.9813 27.5952C29.3334 27.0589 29.806 26.6123 30.3613 26.2911C30.9167 25.9699 31.5394 25.7829 32.1799 25.7451C32.8203 25.7073 33.4607 25.8197 34.05 26.0733C35.73 26.7933 39.2767 28.4133 43.77 31.0066C46.9278 32.8114 49.9775 34.7992 52.9033 36.9599C53.4178 37.3427 53.8356 37.8405 54.1234 38.4134C54.4113 38.9864 54.5612 39.6187 54.5612 40.2599C54.5612 40.9012 54.4113 41.5335 54.1234 42.1065C53.8356 42.6794 53.4178 43.1772 52.9033 43.5599C49.9773 45.7184 46.9277 47.704 43.77 49.5066C40.629 51.3413 37.3835 52.9908 34.05 54.4466C33.4608 54.701 32.8202 54.8139 32.1795 54.7764C31.5388 54.739 30.9158 54.5521 30.3602 54.2307C29.8047 53.9094 29.332 53.4625 28.9801 52.9258C28.6281 52.3891 28.4066 51.7775 28.3333 51.1399C27.9334 47.5272 27.7375 43.8948 27.7467 40.2599C27.7467 35.0899 28.12 31.1966 28.3333 29.3799Z" fill="#ECE6F3"/>
</svg>
