<svg width="144" height="145" viewBox="0 0 144 145" fill="none" xmlns="http://www.w3.org/2000/svg">
<path d="M33.3432 122.26C33.3432 122.26 29.0832 94.7002 53.0832 94.7002C58.4471 98.3773 64.8431 100.25 71.3432 100.046L71.8932 100.246C78.696 100.163 85.3167 98.0365 90.8952 94.1422C114.025 94.0722 109.111 122.062 109.573 122.262" fill="white"/>
<path d="M90.0447 93.0259C84.8568 96.8959 78.7354 99.321 72.3047 100.054C98.5047 100.854 98.5047 114.254 99.9047 122.254H110.105C110.105 122.254 114.045 93.0259 90.0447 93.0259Z" fill="#D0CFCE"/>
<path d="M54.2031 44.4798V28.5398C54.2031 28.5398 67.6431 29.0598 72.5831 23.2598C77.5231 29.0598 90.9631 28.5398 90.9631 28.5398V44.4198L72.8231 42.6598L54.2031 44.4798Z" fill="white"/>
<path d="M68.623 35.268H71.507V38.152H73.537V35.268H76.421V33.238H73.537V30.354H71.507V33.238H68.623V35.268Z" fill="#D22F27"/>
<path d="M91.7335 46.188L71.7455 43.002L50.1615 57.646C49.9014 59.3939 49.7704 61.1587 49.7695 62.926C49.7695 78.582 59.9215 91.274 72.4455 91.274C84.9695 91.274 95.1235 78.582 95.1235 62.928C95.103 57.1796 93.9511 51.4914 91.7335 46.188Z" fill="#FCEA2B"/>
<path d="M63.5391 86.7003L57.1991 86.7403H56.5391C54.5479 86.6888 52.5689 86.4137 50.6391 85.9203C49.9791 85.7603 49.3191 85.5804 48.6791 85.3604C40.3791 82.3604 35.6391 72.7603 49.0991 53.1203C50.1391 51.6003 51.2791 50.0004 52.5591 48.3604H54.5591C54.557 48.5155 54.5369 48.6699 54.4991 48.8204C54.473 48.96 54.4258 49.0949 54.3591 49.2204C54.3191 49.3204 54.2591 49.4204 54.1991 49.5404L54.1591 49.5804C53.5191 50.7804 51.6651 51.8204 50.3251 53.6404C49.8051 54.3404 49.4211 55.9324 48.8611 56.7124C49.8611 56.3324 51.4791 55.6204 52.6991 55.1804C52.3181 56.6772 52.0572 58.202 51.9191 59.7404C51.8191 60.8004 51.7591 61.8603 51.7591 62.9203C51.7591 73.3803 56.5791 82.4403 63.5391 86.7003ZM88.3191 86.5404H87.8791L81.5191 86.5804C88.3791 82.3004 93.1191 73.3004 93.1191 62.9203C93.1443 58.1558 92.0985 53.4464 90.0591 49.1404C89.945 48.8949 89.8772 48.6304 89.8591 48.3604H92.2991C93.5791 50.0204 94.7591 51.6204 95.7991 53.1604C113.179 78.4604 100.079 86.5404 88.3191 86.5404Z" fill="#A57939"/>
<path d="M70.593 43.4202C64.641 41.1182 54.129 46.1402 54.129 46.1402C51.6265 49.8511 50.1575 54.1615 49.873 58.6282C61.133 55.9242 75.547 44.3262 75.547 44.3262C74.839 43.9102 71.367 43.7202 70.593 43.4202Z" fill="#A57939"/>
<path d="M109.711 122.452C109.608 122.453 109.506 122.445 109.405 122.43C108.88 122.35 108.409 122.065 108.095 121.638C107.781 121.211 107.649 120.676 107.729 120.152C107.747 120.038 109.383 108.67 103.471 101.796C100.507 98.3521 96.0506 96.5561 90.2166 96.4561L90.1866 96.4701C83.6066 100.91 78.2266 103.652 71.9066 103.652H71.6386C65.3706 103.444 59.7546 100.638 53.3206 96.4601C50.7262 96.5645 48.1596 97.0345 45.6966 97.8561C39.7626 99.6641 37.0266 107.392 37.0006 107.47C35.7422 111.572 35.3607 115.893 35.8806 120.152C35.9609 120.676 35.8297 121.211 35.5158 121.639C35.2019 122.066 34.7309 122.352 34.2066 122.432C33.6823 122.512 33.1475 122.381 32.7199 122.067C32.2923 121.753 32.0069 121.282 31.9266 120.758C31.3013 115.861 31.7406 110.886 33.2146 106.174C33.3566 105.766 36.6706 96.4241 44.5286 94.0301C47.5543 93.0258 50.7168 92.4942 53.9046 92.4541C54.2947 92.454 54.6764 92.568 55.0026 92.7821C61.2626 96.8881 66.2506 99.4701 71.7706 99.6541C77.2806 99.6541 82.1186 97.1061 88.1826 92.9941C88.2612 92.9417 88.3434 92.8949 88.4286 92.8541C88.8021 92.5916 89.2481 92.4518 89.7046 92.4541C97.0166 92.4541 102.673 94.7241 106.519 99.2081C113.627 107.492 111.763 120.22 111.681 120.758C111.608 121.229 111.369 121.659 111.007 121.969C110.646 122.28 110.187 122.451 109.711 122.452Z" fill="black"/>
<path d="M61.3036 114.254C60.9083 114.254 60.5218 114.137 60.1928 113.918C59.8639 113.699 59.6074 113.387 59.4556 113.022L52.0556 95.2219C51.8519 94.7317 51.8512 94.1808 52.0538 93.6902C52.2563 93.1996 52.6455 92.8096 53.1356 92.6059C53.6257 92.4022 54.1767 92.4015 54.6673 92.6041C55.1578 92.8066 55.5479 93.1957 55.7516 93.6859L61.9796 108.668L70.0616 100.266C70.4294 99.8834 70.9341 99.6628 71.4647 99.6525C71.9952 99.6421 72.5081 99.843 72.8906 100.211C73.273 100.579 73.4937 101.083 73.504 101.614C73.5143 102.145 73.3134 102.657 72.9456 103.04L62.7456 113.64C62.5592 113.834 62.3356 113.988 62.0881 114.094C61.8407 114.199 61.5726 114.254 61.3036 114.254Z" fill="black"/>
<path d="M76.7063 108.854C76.4434 108.854 76.1829 108.803 75.94 108.702C75.697 108.602 75.4762 108.454 75.2903 108.268L70.0903 103.068C69.9045 102.883 69.7571 102.662 69.6564 102.419C69.5558 102.177 69.504 101.917 69.5039 101.654C69.5038 101.391 69.5555 101.131 69.6559 100.888C69.7564 100.646 69.9036 100.425 70.0893 100.239C70.275 100.053 70.4955 99.906 70.7381 99.8054C70.9808 99.7048 71.2409 99.6529 71.5036 99.6528C71.7663 99.6527 72.0264 99.7044 72.2692 99.8048C72.5119 99.9053 72.7325 100.053 72.9183 100.238L78.1203 105.44C78.3999 105.72 78.5903 106.076 78.6675 106.464C78.7446 106.852 78.705 107.254 78.5537 107.62C78.4023 107.985 78.1461 108.297 77.8172 108.517C77.4884 108.737 77.1018 108.854 76.7063 108.854Z" fill="black"/>
<path d="M81.9048 114.254C81.6358 114.254 81.3697 114.199 81.1222 114.094C80.8748 113.988 80.6512 113.834 80.4648 113.64L75.2648 108.24C74.9197 107.854 74.7378 107.349 74.7572 106.832C74.7766 106.315 74.9958 105.825 75.3688 105.466C75.7418 105.107 76.2395 104.907 76.7572 104.907C77.2749 104.907 77.7723 105.108 78.1448 105.468L81.2388 108.678L87.4128 93.994C87.5381 93.5863 87.788 93.2281 88.1273 92.9698C88.4667 92.7115 88.8785 92.5661 89.3048 92.554C89.5619 92.5432 89.8186 92.5843 90.0595 92.6747C90.3004 92.7651 90.5207 92.903 90.7073 93.0803C90.8939 93.2575 91.0429 93.4705 91.1455 93.7064C91.2482 93.9424 91.3023 94.1966 91.3048 94.454V94.654C91.3048 94.9198 91.2517 95.1829 91.1488 95.428L83.7488 113.03C83.6207 113.335 83.4188 113.604 83.1611 113.812C82.9035 114.02 82.5983 114.161 82.2728 114.222C82.1514 114.244 82.0282 114.255 81.9048 114.254ZM101.721 119.254H90.1208C89.5904 119.254 89.0817 119.043 88.7066 118.668C88.3315 118.293 88.1208 117.784 88.1208 117.254C88.1208 116.724 88.3315 116.215 88.7066 115.84C89.0817 115.465 89.5904 115.254 90.1208 115.254H101.721C101.988 115.238 102.255 115.279 102.505 115.373C102.755 115.468 102.982 115.615 103.171 115.804C103.36 115.993 103.506 116.22 103.601 116.47C103.696 116.72 103.737 116.987 103.721 117.254C103.721 117.784 103.51 118.293 103.135 118.668C102.76 119.043 102.251 119.254 101.721 119.254ZM96.2708 85.744C95.7979 85.7439 95.3403 85.5763 94.9792 85.2709C94.6182 84.9654 94.377 84.5419 94.2986 84.0756C94.2202 83.6092 94.3096 83.1301 94.5509 82.7234C94.7922 82.3167 95.1699 82.0086 95.6168 81.854C97.0492 81.4806 98.3664 80.7573 99.4503 79.7492C100.534 78.7411 101.351 77.4796 101.827 76.078C103.019 72.092 102.055 64.262 90.7108 49.58C90.5501 49.3721 90.432 49.1346 90.3632 48.8811C90.2943 48.6276 90.2761 48.363 90.3095 48.1024C90.3429 47.8418 90.4274 47.5904 90.558 47.3624C90.6886 47.1345 90.8629 46.9345 91.0708 46.774C91.2494 46.6133 91.461 46.4936 91.6907 46.423C91.9203 46.3525 92.1626 46.333 92.4006 46.3657C92.6387 46.3985 92.8667 46.4828 93.0688 46.6127C93.2709 46.7426 93.4422 46.915 93.5708 47.118C103.513 59.982 107.781 70.122 105.659 77.224C105.005 79.2356 103.866 81.0554 102.343 82.5225C100.819 83.9896 98.9577 85.0589 96.9228 85.636C96.713 85.7079 96.4926 85.7444 96.2708 85.744ZM56.3608 46.63C56.3633 46.7924 56.341 46.9542 56.2948 47.11C56.2657 47.2574 56.213 47.3992 56.1388 47.53C56.0948 47.634 55.4288 47.016 55.3628 47.142C55.3408 47.162 56.1748 46.982 56.1528 47.002C53.6181 50.2207 51.2722 53.5837 49.1268 57.074C43.0028 66.556 42.5128 72.228 43.4708 75.474C43.964 76.9078 44.7967 78.2011 45.8979 79.2434C46.9991 80.2857 48.3361 81.0462 49.7948 81.46C50.0618 81.548 50.3079 81.6898 50.5181 81.8765C50.7282 82.0633 50.8979 82.2911 51.0167 82.5459C51.1354 82.8007 51.2008 83.0771 51.2088 83.3582C51.2167 83.6392 51.167 83.9189 51.0628 84.18C50.8837 84.5776 50.5925 84.9143 50.2247 85.1488C49.857 85.3833 49.4289 85.5053 48.9928 85.5C48.7113 85.5045 48.4316 85.4549 48.1688 85.354C46.0757 84.7258 44.1661 83.5996 42.6035 82.0718C41.041 80.5441 39.872 78.6603 39.1968 76.582C37.0148 69.174 41.4448 58.644 52.3768 45.352C52.5787 45.1083 52.8296 44.9097 53.1131 44.7692C53.3967 44.6286 53.7066 44.5491 54.0228 44.536H54.0448C54.316 44.5292 54.5866 44.565 54.8468 44.642C54.9699 44.6791 55.0891 44.728 55.2028 44.788C55.3174 44.831 55.4232 44.8947 55.5148 44.976C55.648 45.0792 55.7676 45.1988 55.8708 45.332C55.9637 45.4299 56.0395 45.5428 56.0948 45.666C56.183 45.7845 56.2437 45.9211 56.2728 46.066C56.3364 46.247 56.3649 46.4381 56.3608 46.63Z" fill="black"/>
<path d="M97.1203 62.9199C97.2942 71.707 93.9705 80.2033 87.8803 86.5399C85.9232 88.6437 83.5568 90.3251 80.9262 91.481C78.2957 92.6369 75.4567 93.2428 72.5834 93.2615C69.7102 93.2803 66.8635 92.7114 64.2181 91.5899C61.5728 90.4684 59.1846 88.818 57.2003 86.7399C54.1246 83.5948 51.7058 79.8688 50.0851 75.7791C48.4644 71.6895 47.6741 67.3181 47.7603 62.9199C47.7603 62.3999 47.7803 61.8799 47.8003 61.3599C47.836 60.3495 47.9228 59.3416 48.0603 58.3399C48.2614 56.5741 48.6092 54.828 49.1003 53.1199C49.6266 51.1512 50.3364 49.2361 51.2203 47.3999C51.3431 47.1497 51.5168 46.928 51.7304 46.7489C51.9439 46.5698 52.1925 46.4373 52.4603 46.3599H52.4803C52.5181 46.3439 52.5593 46.337 52.6003 46.3399C52.8061 46.3409 53.0099 46.3817 53.2003 46.4599C53.2851 46.4692 53.3669 46.4965 53.4403 46.5399C53.4603 46.5599 53.5003 46.5799 53.5203 46.5999C53.6252 46.6396 53.7206 46.7009 53.8003 46.7799C53.9198 46.8804 54.0272 46.9945 54.1203 47.1199C54.2066 47.2129 54.2745 47.3215 54.3203 47.4399C54.3994 47.5541 54.4539 47.6835 54.4803 47.8199C54.5377 47.994 54.5647 48.1767 54.5603 48.3599C54.5582 48.5151 54.538 48.6694 54.5003 48.8199C54.4742 48.9596 54.427 49.0945 54.3603 49.2199C54.3203 49.3199 54.2603 49.4199 54.2003 49.5399L54.1603 49.5799C53.5203 50.7799 49.5343 51.7119 49.5403 53.9719C49.5463 54.9759 50.5143 56.0039 49.3603 56.4399C50.3603 56.0599 51.4803 55.6199 52.7003 55.1799C52.3193 56.6767 52.0584 58.2016 51.9203 59.7399C51.8203 60.7999 51.7603 61.8599 51.7603 62.9199C51.7603 73.3799 56.5803 82.4399 63.5403 86.6999C66.2382 88.3924 69.363 89.2801 72.5478 89.2588C75.7325 89.2376 78.8452 88.3082 81.5203 86.5799C88.3803 82.2999 93.1203 73.2999 93.1203 62.9199C93.1455 58.1553 92.0997 53.446 90.0603 49.1399C89.7652 48.4684 89.5166 47.7775 89.3163 47.0719C89.3276 46.6836 89.4496 46.3066 89.6678 45.9853C89.8861 45.664 90.1915 45.4116 90.5483 45.2579C91.5483 44.7779 92.2263 43.8379 92.7803 45.1419C93.5703 47.0019 95.2603 51.1599 95.8003 53.1599C96.6853 56.3374 97.1295 59.6215 97.1203 62.9199Z" fill="black"/>
<path d="M84.4462 60.206C84.4462 60.9971 84.2116 61.7704 83.7721 62.4282C83.3326 63.086 82.7078 63.5987 81.9769 63.9015C81.246 64.2042 80.4418 64.2834 79.6659 64.1291C78.8899 63.9748 78.1772 63.5938 77.6178 63.0344C77.0584 62.475 76.6774 61.7622 76.5231 60.9863C76.3687 60.2104 76.4479 59.4061 76.7507 58.6752C77.0534 57.9443 77.5661 57.3196 78.2239 56.8801C78.8817 56.4406 79.6551 56.206 80.4462 56.206C81.5071 56.206 82.5245 56.6274 83.2746 57.3775C84.0248 58.1277 84.4462 59.1451 84.4462 60.206ZM68.4462 60.206C68.4462 60.9971 68.2116 61.7704 67.7721 62.4282C67.3326 63.086 66.7078 63.5987 65.9769 63.9015C65.246 64.2042 64.4418 64.2834 63.6659 64.1291C62.8899 63.9748 62.1772 63.5938 61.6178 63.0344C61.0584 62.475 60.6774 61.7622 60.5231 60.9863C60.3687 60.2104 60.4479 59.4061 60.7507 58.6752C61.0534 57.9443 61.5661 57.3196 62.2239 56.8801C62.8817 56.4406 63.6551 56.206 64.4462 56.206C65.5071 56.206 66.5245 56.6274 67.2746 57.3775C68.0248 58.1277 68.4462 59.1451 68.4462 60.206ZM72.4462 80.21C70.0454 80.1868 67.6837 79.599 65.5522 78.494C65.082 78.2544 64.7255 77.8387 64.5605 77.3374C64.3954 76.8362 64.4352 76.29 64.6711 75.8179C64.907 75.3458 65.3199 74.9861 65.8199 74.8172C66.3199 74.6482 66.8663 74.6837 67.3402 74.916C68.9092 75.7618 70.6637 76.2046 72.4462 76.2046C74.2287 76.2046 75.9832 75.7618 77.5522 74.916C78.027 74.6789 78.5764 74.6401 79.0798 74.8081C79.5831 74.9761 79.9991 75.3372 80.2362 75.812C80.4733 76.2867 80.5121 76.8362 80.3441 77.3395C80.1761 77.8429 79.8149 78.2589 79.3402 78.496C77.2085 79.6003 74.8469 80.1874 72.4462 80.21ZM90.9662 47.886C90.7627 47.886 90.5604 47.855 90.3662 47.794C78.7776 44.1849 66.3652 44.1877 54.7782 47.802C54.5248 47.8834 54.2577 47.9135 53.9925 47.8904C53.7274 47.8673 53.4695 47.7915 53.234 47.6675C52.9985 47.5435 52.7901 47.3737 52.6211 47.168C52.452 46.9624 52.3257 46.7251 52.2496 46.4701C52.1734 46.215 52.149 45.9474 52.1776 45.6827C52.2063 45.4181 52.2875 45.1618 52.4164 44.929C52.5454 44.6961 52.7195 44.4914 52.9286 44.3267C53.1377 44.162 53.3776 44.0407 53.6342 43.97C65.9858 40.1219 79.2162 40.1247 91.5662 43.978C92.0221 44.1212 92.4117 44.423 92.6643 44.8287C92.9169 45.2344 93.016 45.7171 92.9434 46.1895C92.8709 46.6618 92.6316 47.0926 92.269 47.4038C91.9063 47.715 91.4441 47.8861 90.9662 47.886Z" fill="black"/>
<path d="M70.9874 22.052C71.0274 22.032 71.0474 21.992 71.0674 21.972C71.3064 21.6701 71.6359 21.4528 72.0074 21.352C72.0824 21.3155 72.1641 21.2951 72.2474 21.292C72.3576 21.2592 72.4727 21.2457 72.5874 21.252C72.7022 21.2457 72.8173 21.2592 72.9274 21.292C73.0107 21.2951 73.0925 21.3155 73.1674 21.352C73.4333 21.422 73.6796 21.552 73.8874 21.732C74.0017 21.8244 74.1026 21.9321 74.1874 22.052C77.4874 25.772 85.8874 26.552 89.8874 26.572C90.2674 26.572 90.6074 26.552 90.8874 26.552C91.1548 26.5375 91.4222 26.578 91.6734 26.6708C91.9245 26.7637 92.1539 26.907 92.3474 27.092C92.5424 27.2779 92.6979 27.5013 92.8044 27.7487C92.911 27.9962 92.9664 28.2626 92.9674 28.532V45.472C92.9674 46.0024 92.7567 46.5111 92.3817 46.8862C92.0066 47.2613 91.4979 47.472 90.9674 47.472C90.437 47.472 89.9283 47.2613 89.5532 46.8862C89.1782 46.5111 88.9674 46.0024 88.9674 45.472V30.532C88.5274 30.532 88.0074 30.512 87.4474 30.472C83.3674 30.232 76.7274 29.332 72.5874 25.992C72.0287 25.5701 71.5189 25.0871 71.0674 24.552C70.7699 24.2074 70.5996 23.7712 70.585 23.3162C70.5704 22.8611 70.7125 22.4149 70.9874 22.052Z" fill="black"/>
<path d="M52.207 45.472V28.532C52.2084 27.9915 52.4242 27.4735 52.807 27.092C53.2096 26.7213 53.7399 26.5206 54.287 26.532C54.567 26.552 54.907 26.552 55.267 26.552C59.287 26.552 67.707 25.792 70.987 22.052C71.027 22.032 71.047 21.992 71.067 21.972C71.306 21.6701 71.6355 21.4528 72.007 21.352C72.082 21.3155 72.1637 21.2951 72.247 21.292C72.3572 21.2592 72.4722 21.2457 72.587 21.252C72.7018 21.2457 72.8168 21.2592 72.927 21.292C73.0103 21.2951 73.0921 21.3155 73.167 21.352C73.4329 21.422 73.6792 21.552 73.887 21.732C74.0012 21.8244 74.1022 21.9321 74.187 22.052C74.462 22.4149 74.604 22.8611 74.5895 23.3162C74.5749 23.7712 74.4046 24.2074 74.107 24.552C73.6556 25.0871 73.1457 25.5701 72.587 25.992C68.447 29.332 61.807 30.232 57.727 30.472C57.167 30.512 56.647 30.532 56.207 30.532V45.472C56.207 46.0024 55.9963 46.5111 55.6212 46.8862C55.2462 47.2613 54.7375 47.472 54.207 47.472C53.6766 47.472 53.1679 47.2613 52.7928 46.8862C52.4177 46.5111 52.207 46.0024 52.207 45.472Z" fill="black"/>
<path d="M73.54 30.354V33.238H76.422V35.268H73.54V38.152H71.51V35.268H68.626V33.24H71.51V30.356L73.54 30.354ZM73.54 28.354H71.51C70.9796 28.354 70.4709 28.5647 70.0958 28.9398C69.7207 29.3149 69.51 29.8236 69.51 30.354V31.238H68.626C68.0956 31.238 67.5869 31.4487 67.2118 31.8238C66.8367 32.1989 66.626 32.7076 66.626 33.238V35.268C66.626 35.7984 66.8367 36.3071 67.2118 36.6822C67.5869 37.0573 68.0956 37.268 68.626 37.268H69.51V38.152C69.51 38.6824 69.7207 39.1911 70.0958 39.5662C70.4709 39.9413 70.9796 40.152 71.51 40.152H73.54C74.0704 40.152 74.5791 39.9413 74.9542 39.5662C75.3293 39.1911 75.54 38.6824 75.54 38.152V37.268H76.424C76.9544 37.268 77.4631 37.0573 77.8382 36.6822C78.2133 36.3071 78.424 35.7984 78.424 35.268V33.24C78.424 32.7096 78.2133 32.2009 77.8382 31.8258C77.4631 31.4507 76.9544 31.24 76.424 31.24H75.54V30.356C75.54 29.8256 75.3293 29.3169 74.9542 28.9418C74.5791 28.5667 74.0704 28.356 73.54 28.356M50.432 61.12C50.1314 61.1201 49.8347 61.0524 49.5639 60.922C49.2931 60.7915 49.0552 60.6018 48.8678 60.3667C48.6804 60.1317 48.5484 59.8575 48.4816 59.5644C48.4149 59.2714 48.415 58.967 48.482 58.674L48.486 58.294C48.4274 53.5627 49.8207 48.9271 52.478 45.012C52.7225 44.655 53.0762 44.3869 53.486 44.248C54.006 44.07 66.39 39.922 76.706 41.228C77.0864 41.2763 77.4448 41.433 77.7387 41.6793C78.0325 41.9256 78.2493 42.2512 78.3634 42.6173C78.4774 42.9834 78.4838 43.3745 78.3818 43.7441C78.2798 44.1137 78.0737 44.4462 77.788 44.702C77.17 45.256 62.516 58.274 50.898 61.062C50.7454 61.0989 50.589 61.1197 50.432 61.12ZM55.412 47.83C53.7867 50.4071 52.812 53.3406 52.572 56.378C59.2916 53.5033 65.5588 49.6694 71.178 44.996C65.826 45.2929 60.5325 46.2447 55.412 47.83Z" fill="black"/>
</svg>
