<svg width="144" height="144" viewBox="0 0 144 144" fill="none" xmlns="http://www.w3.org/2000/svg">
<path fill-rule="evenodd" clip-rule="evenodd" d="M46.2857 15.4287H28.2857C25.5578 15.4287 22.9416 16.5124 21.0126 18.4413C19.0837 20.3703 18 22.9865 18 25.7144V128.572C18 131.3 19.0837 133.916 21.0126 135.845C22.9416 137.774 25.5578 138.857 28.2857 138.857H115.714C118.442 138.857 121.058 137.774 122.987 135.845C124.916 133.916 126 131.3 126 128.572V25.7144C126 22.9865 124.916 20.3703 122.987 18.4413C121.058 16.5124 118.442 15.4287 115.714 15.4287H97.7143V20.5716C97.7143 23.2995 96.6306 25.9157 94.7017 27.8447C92.7727 29.7736 90.1565 30.8573 87.4286 30.8573H56.5714C53.8435 30.8573 51.2273 29.7736 49.2983 27.8447C47.3694 25.9157 46.2857 23.2995 46.2857 20.5716V15.4287Z" fill="#D7E0FF"/>
<path d="M100.286 15.4287H115.714C118.442 15.4287 121.058 16.5124 122.987 18.4413C124.916 20.3703 126 22.9865 126 25.7144V128.572C126 131.3 124.916 133.916 122.987 135.845C121.058 137.774 118.442 138.857 115.714 138.857H28.2857C25.5578 138.857 22.9416 137.774 21.0126 135.845C19.0837 133.916 18 131.3 18 128.572V25.7144C18 22.9865 19.0837 20.3703 21.0126 18.4413C22.9416 16.5124 25.5578 15.4287 28.2857 15.4287H43.7143" stroke="#4147D5" stroke-linecap="round" stroke-linejoin="round"/>
<path d="M87.428 5.14307H56.5709C53.8429 5.14307 51.2267 6.22674 49.2978 8.15568C47.3688 10.0846 46.2852 12.7008 46.2852 15.4288V20.5716C46.2852 23.2996 47.3688 25.9158 49.2978 27.8447C51.2267 29.7737 53.8429 30.8574 56.5709 30.8574H87.428C90.156 30.8574 92.7722 29.7737 94.7011 27.8447C96.6301 25.9158 97.7137 23.2996 97.7137 20.5716V15.4288C97.7137 12.7008 96.6301 10.0846 94.7011 8.15568C92.7722 6.22674 90.156 5.14307 87.428 5.14307Z" fill="white"/>
<path d="M87.428 5.14307H56.5709C53.8429 5.14307 51.2267 6.22674 49.2978 8.15568C47.3688 10.0846 46.2852 12.7008 46.2852 15.4288V20.5716C46.2852 23.2996 47.3688 25.9158 49.2978 27.8447C51.2267 29.7737 53.8429 30.8574 56.5709 30.8574H87.428C90.156 30.8574 92.7722 29.7737 94.7011 27.8447C96.6301 25.9158 97.7137 23.2996 97.7137 20.5716V15.4288C97.7137 12.7008 96.6301 10.0846 94.7011 8.15568C92.7722 6.22674 90.156 5.14307 87.428 5.14307Z" stroke="#4147D5" stroke-linecap="round" stroke-linejoin="round"/>
<path d="M64.8309 53.5889C63.6579 53.5889 62.5329 54.0548 61.7035 54.8843C60.874 55.7137 60.408 56.8387 60.408 58.0117V70.4266H47.9932C46.8202 70.4266 45.6952 70.8926 44.8657 71.722C44.0363 72.5515 43.5703 73.6764 43.5703 74.8494V89.198C43.5703 91.6357 45.5555 93.6209 47.9932 93.6209H60.408V106.036C60.408 108.473 62.3932 110.459 64.8309 110.459H79.1795C80.3525 110.459 81.4774 109.993 82.3069 109.163C83.1363 108.334 83.6023 107.209 83.6023 106.036V93.6003H96.0172C97.1902 93.6003 98.3152 93.1343 99.1446 92.3049C99.974 91.4754 100.44 90.3505 100.44 89.1774V74.8494C100.437 73.6782 99.9701 72.5559 99.141 71.7287C98.3118 70.9014 97.1884 70.4369 96.0172 70.4369H83.6023V58.0014C83.5996 56.8302 83.1324 55.7079 82.3033 54.8807C81.4741 54.0534 80.3507 53.5889 79.1795 53.5889H64.8309Z" fill="white"/>
<path d="M64.8309 53.5889C63.6579 53.5889 62.5329 54.0548 61.7035 54.8843C60.874 55.7137 60.408 56.8387 60.408 58.0117V70.4266H47.9932C46.8202 70.4266 45.6952 70.8926 44.8657 71.722C44.0363 72.5515 43.5703 73.6764 43.5703 74.8494V89.198C43.5703 91.6357 45.5555 93.6209 47.9932 93.6209H60.408V106.036C60.408 108.473 62.3932 110.459 64.8309 110.459H79.1795C80.3525 110.459 81.4774 109.993 82.3069 109.163C83.1363 108.334 83.6023 107.209 83.6023 106.036V93.6106H96.0172C97.1884 93.6106 98.3118 93.146 99.141 92.3188C99.9701 91.4916 100.437 90.3692 100.44 89.198V74.8494C100.44 73.6764 99.9741 72.5515 99.1446 71.722C98.3152 70.8926 97.1902 70.4266 96.0172 70.4266H83.6023V58.0117C83.5996 56.8405 83.1324 55.7182 82.3033 54.8909C81.4741 54.0637 80.3507 53.5991 79.1795 53.5992L64.8309 53.5889Z" stroke="#4147D5" stroke-linecap="round" stroke-linejoin="round"/>
</svg>
