<svg width="144" height="145" viewBox="0 0 144 145" fill="none" xmlns="http://www.w3.org/2000/svg">
<g clip-path="url(#clip0_185_333)">
<path d="M141.36 6.79992C140.052 5.0725 138.391 3.64383 136.487 2.6092C134.583 1.57456 132.481 0.957759 130.32 0.799923C128.125 0.589794 125.91 0.868171 123.836 1.61508C121.761 2.36198 119.877 3.5589 118.32 5.11992L57.6598 65.7799C56.5423 66.9041 55.9151 68.4248 55.9151 70.0099C55.9151 71.595 56.5423 73.1157 57.6598 74.2399L70.3798 87.0199C70.9376 87.5823 71.6012 88.0287 72.3324 88.3333C73.0635 88.6379 73.8478 88.7947 74.6398 88.7947C75.4319 88.7947 76.2161 88.6379 76.9473 88.3333C77.6784 88.0287 78.342 87.5823 78.8998 87.0199L139.26 26.5399C141.868 24.0174 143.507 20.6588 143.891 17.0509C144.274 13.4429 143.379 9.81471 141.36 6.79992ZM52.4398 83.5999C51.8689 83.0464 51.105 82.7369 50.3098 82.7369C49.5147 82.7369 48.7507 83.0464 48.1798 83.5999L1.73983 130.04C1.11464 130.663 0.634555 131.416 0.333794 132.246C0.0330326 133.075 -0.0809991 133.961 -0.00017285 134.84C0.0830504 135.714 0.357247 136.56 0.803051 137.317C1.24886 138.073 1.85539 138.723 2.57983 139.22C7.23932 142.562 12.8068 144.403 18.5398 144.5C22.5575 144.344 26.5027 143.382 30.1412 141.671C33.7796 139.96 37.037 137.535 39.7198 134.54C44.6848 128.606 47.2528 121.03 46.9198 113.3C46.9198 102.5 59.9998 97.0399 59.9998 96.9799C60.4496 96.7809 60.8436 96.4743 61.147 96.0872C61.4504 95.7 61.654 95.2442 61.7398 94.7599C61.833 94.2847 61.8049 93.7937 61.6581 93.3323C61.5113 92.8708 61.2505 92.4539 60.8998 92.1199L52.4398 83.5999Z" fill="black"/>
</g>
<defs>
<clipPath id="clip0_185_333">
<rect width="144" height="144" fill="white" transform="translate(0 0.5)"/>
</clipPath>
</defs>
</svg>
