<svg width="144" height="144" viewBox="0 0 144 144" fill="none" xmlns="http://www.w3.org/2000/svg">
<path d="M81 132C70.2 132 61 128.2 53.4 120.6C45.8 113 42 103.8 42 93V89.55C33.4 88.15 26.25 84.124 20.55 77.472C14.85 70.82 12 62.996 12 54V18H30V12H42V36H30V30H24V54C24 60.6 26.35 66.25 31.05 70.95C35.75 75.65 41.4 78 48 78C54.6 78 60.25 75.65 64.95 70.95C69.65 66.25 72 60.6 72 54V30H66V36H54V12H66V18H84V54C84 63 81.15 70.826 75.45 77.478C69.75 84.13 62.6 88.154 54 89.55V93C54 100.5 56.626 106.876 61.878 112.128C67.13 117.38 73.504 120.004 81 120C88.496 119.996 94.872 117.372 100.128 112.128C105.384 106.884 108.008 100.508 108 93V82.95C104.5 81.75 101.626 79.6 99.378 76.5C97.13 73.4 96.004 69.9 96 66C96 61 97.75 56.75 101.25 53.25C104.75 49.75 109 48 114 48C119 48 123.25 49.75 126.75 53.25C130.25 56.75 132 61 132 66C132 69.9 130.876 73.4 128.628 76.5C126.38 79.6 123.504 81.75 120 82.95V93C120 103.8 116.2 113 108.6 120.6C101 128.2 91.8 132 81 132Z" fill="#4E2675"/>
</svg>
